<svg xmlns="http://www.w3.org/2000/svg" viewBox="0 0 520 390" role="img" aria-labelledby="title desc"><title id="title">Ideas and planning</title><desc id="desc">A teen arranging notes and ideas for a personal plan.</desc><style>.float{animation:float 5.2s ease-in-out infinite}.pulse{animation:pulse 2.6s ease-in-out infinite}@keyframes float{0%,100%{transform:translateY(0)}50%{transform:translateY(-11px)}}@keyframes pulse{0%,100%{transform:scale(1);opacity:.72}50%{transform:scale(1.08);opacity:1}}</style><rect width="520" height="390" rx="34" fill="#EEF8F5"/><g class="pulse"><circle cx="386" cy="79" r="31" fill="#E9C46A"/><path d="M386 56v46M363 79h46" stroke="#fff" stroke-width="7" stroke-linecap="round"/></g><g class="float"><rect x="63" y="94" width="150" height="98" rx="18" fill="#fff"/><rect x="323" y="171" width="135" height="100" rx="18" fill="#fff"/><path d="M91 125h83M91 149h57M349 202h76M349 226h49" stroke="#BFE7DF" stroke-width="8" stroke-linecap="round"/><path d="M210 200c42-35 74-37 113-3" fill="none" stroke="#2A9D8F" stroke-width="8" stroke-linecap="round" stroke-dasharray="10 13"/></g><ellipse cx="256" cy="336" rx="94" ry="14" fill="#172033" opacity=".1"/><g class="float" style="animation-delay:-1s"><circle cx="250" cy="134" r="38" fill="#D89584"/><path d="M213 123c11-42 74-47 88-3-27 3-49-5-67-22-6 11-13 19-21 25z" fill="#172033"/><path d="M183 187h134v91H183z" fill="#E9C46A"/><path d="M203 278h36v54h-36zM264 278h36v54h-36z" fill="#264653"/><circle cx="238" cy="137" r="4" fill="#172033"/><circle cx="267" cy="137" r="4" fill="#172033"/><path d="M239 156c10 7 23 7 33 0" fill="none" stroke="#172033" stroke-width="4" stroke-linecap="round"/><path d="M183 212h134" stroke="#fff" stroke-width="10" opacity=".55"/></g></svg>
