<svg xmlns="http://www.w3.org/2000/svg" viewBox="0 0 520 390" role="img" aria-labelledby="title desc"><title id="title">Checkpoint celebration</title><desc id="desc">Teenagers celebrating a milestone with confetti and badges.</desc><style>.float{animation:float 4.6s ease-in-out infinite}.confetti{animation:fall 3.2s ease-in-out infinite}@keyframes float{0%,100%{transform:translateY(0)}50%{transform:translateY(-11px)}}@keyframes fall{0%,100%{transform:translateY(0) rotate(0deg);opacity:.6}50%{transform:translateY(13px) rotate(22deg);opacity:1}}</style><rect width="520" height="390" rx="34" fill="#F7F4EA"/><circle class="confetti" cx="82" cy="78" r="7" fill="#2A9D8F"/><rect class="confetti" x="150" y="54" width="13" height="13" rx="3" fill="#E9C46A"/><circle class="confetti" cx="426" cy="78" r="7" fill="#E76F51"/><rect class="confetti" x="363" y="55" width="13" height="13" rx="3" fill="#8AD7CA"/><path class="float" d="M205 94h110l-55 78z" fill="#E9C46A"/><path d="m238 125 17 17 31-39" fill="none" stroke="#fff" stroke-width="10" stroke-linecap="round" stroke-linejoin="round"/><ellipse cx="260" cy="337" rx="125" ry="16" fill="#172033" opacity=".1"/><g class="float"><circle cx="189" cy="147" r="35" fill="#F2B7A6"/><path d="M156 138c8-38 61-44 77-7-22 4-43-3-61-18-4 10-9 19-16 25z" fill="#172033"/><path d="M145 194h90v85h-90z" fill="#2A9D8F"/><path d="M156 279h31v52h-31zM197 279h31v52h-31z" fill="#264653"/><path d="M145 210l-42-54M235 210l43-54" stroke="#F2B7A6" stroke-width="13" stroke-linecap="round"/></g><g class="float" style="animation-delay:-1s"><circle cx="329" cy="148" r="35" fill="#D89584"/><path d="M296 140c8-38 61-44 77-7-22 4-43-3-61-18-4 10-9 19-16 25z" fill="#172033"/><path d="M285 195h90v84h-90z" fill="#8AD7CA"/><path d="M296 279h31v52h-31zM337 279h31v52h-31z" fill="#264653"/><path d="M285 211l-42-54M375 211l43-54" stroke="#D89584" stroke-width="13" stroke-linecap="round"/></g></svg>
