<svg xmlns="http://www.w3.org/2000/svg" viewBox="0 0 520 390" role="img" aria-labelledby="title desc"><title id="title">Teen choosing direction</title><desc id="desc">Teenagers looking at a map with a compass and route markers.</desc><style>.float{animation:float 5s ease-in-out infinite}.bob{animation:float 4s ease-in-out infinite alternate}.spin{transform-origin:392px 112px;animation:spin 16s linear infinite}@keyframes float{0%,100%{transform:translateY(0)}50%{transform:translateY(-12px)}}@keyframes spin{to{transform:rotate(360deg)}}</style><rect width="520" height="390" rx="34" fill="#EEF8F5"/><path d="M75 92c61-21 112 31 172 14 67-18 90-74 169-45" fill="none" stroke="#D9F0EC" stroke-width="36" stroke-linecap="round"/><g class="spin"><circle cx="392" cy="112" r="49" fill="#fff" stroke="#2A9D8F" stroke-width="8"/><path d="m407 91-18 49-19-29z" fill="#E76F51"/><path d="M392 67v18M392 139v18M347 112h18M419 112h18" stroke="#264653" stroke-width="5" stroke-linecap="round"/></g><g class="float"><path d="M134 168 288 126l89 45-153 52z" fill="#fff" stroke="#BFE7DF" stroke-width="5"/><path d="M184 154v53M251 137v62M318 149v43" stroke="#E9C46A" stroke-width="6" stroke-linecap="round"/><path d="M153 186c41-15 69 21 111 7 30-10 44-33 85-21" fill="none" stroke="#2A9D8F" stroke-width="7" stroke-linecap="round" stroke-dasharray="8 13"/></g><g class="bob"><ellipse cx="168" cy="328" rx="62" ry="12" fill="#172033" opacity=".1"/><circle cx="160" cy="132" r="31" fill="#F2B7A6"/><path d="M129 126c4-30 44-48 67-20 5 6 7 14 7 22-26-3-47-12-62-27-3 10-7 18-12 25z" fill="#172033"/><path d="M117 174h92v96h-92z" fill="#8AD7CA"/><path d="M130 270h31v54h-31zM172 270h31v54h-31z" fill="#264653"/><circle cx="149" cy="136" r="4" fill="#172033"/><circle cx="172" cy="136" r="4" fill="#172033"/><path d="M150 154c9 6 21 6 30 0" fill="none" stroke="#172033" stroke-width="4" stroke-linecap="round"/></g><g class="bob" style="animation-delay:-1s"><ellipse cx="335" cy="331" rx="58" ry="12" fill="#172033" opacity=".1"/><circle cx="342" cy="151" r="29" fill="#D89584"/><path d="M312 145c7-33 52-42 69-8-18 6-39 2-58-9-3 7-7 13-11 17z" fill="#172033"/><path d="M300 191h84v83h-84z" fill="#E9C46A"/><path d="M311 274h29v52h-29zM349 274h29v52h-29z" fill="#264653"/></g></svg>
