<svg xmlns="http://www.w3.org/2000/svg" viewBox="0 0 520 390" role="img" aria-labelledby="title desc"><title id="title">Mentor support community</title><desc id="desc">A supportive mentor and teens chatting together in a warm community scene.</desc><style>.float{animation:float 5.2s ease-in-out infinite}.heart{animation:pulse 2.5s ease-in-out infinite}@keyframes float{0%,100%{transform:translateY(0)}50%{transform:translateY(-10px)}}@keyframes pulse{0%,100%{transform:scale(1)}50%{transform:scale(1.1)}}</style><rect width="520" height="390" rx="34" fill="#EEF8F5"/><path class="heart" d="M395 77c10-19 43-10 43 14 0 27-43 49-43 49s-43-22-43-49c0-24 33-33 43-14z" fill="#E76F51" opacity=".9"/><path class="float" d="M72 105h112a24 24 0 0 1 0 48h-48l-28 24 6-24H72a24 24 0 0 1 0-48z" fill="#fff"/><path d="M99 130h57" stroke="#BFE7DF" stroke-width="7" stroke-linecap="round"/><ellipse cx="260" cy="337" rx="124" ry="16" fill="#172033" opacity=".1"/><g class="float"><circle cx="174" cy="155" r="33" fill="#F2B7A6"/><path d="M143 147c7-36 58-43 74-8-21 4-41-2-58-17-4 10-9 18-16 25z" fill="#172033"/><path d="M132 202h86v79h-86z" fill="#8AD7CA"/><path d="M142 281h30v49h-30zM184 281h30v49h-30z" fill="#264653"/></g><g class="float" style="animation-delay:-1s"><circle cx="273" cy="134" r="38" fill="#D89584"/><path d="M238 126c8-41 66-48 82-10-24 5-47-1-67-18-4 11-9 20-15 28z" fill="#172033"/><path d="M225 187h99v94h-99z" fill="#E9C46A"/><path d="M237 281h33v49h-33zM280 281h33v49h-33z" fill="#264653"/><path d="M229 214c-30 27-58 26-86 2M320 214c33 28 63 27 91 0" fill="none" stroke="#D89584" stroke-width="12" stroke-linecap="round"/></g><g class="float" style="animation-delay:-1.7s"><circle cx="378" cy="155" r="33" fill="#F2B7A6"/><path d="M348 147c7-36 58-43 74-8-21 4-41-2-58-17-4 10-9 18-16 25z" fill="#172033"/><path d="M336 202h86v79h-86z" fill="#2A9D8F"/><path d="M346 281h30v49h-30zM388 281h30v49h-30z" fill="#264653"/></g></svg>
