<svg xmlns="http://www.w3.org/2000/svg" viewBox="0 0 520 390" role="img" aria-labelledby="title desc"><title id="title">Next adventure</title><desc id="desc">Two teens preparing for a self-discovery adventure with a backpack and map.</desc><style>.float{animation:float 4.8s ease-in-out infinite}.leaf{animation:leaf 5s ease-in-out infinite}@keyframes float{0%,100%{transform:translateY(0)}50%{transform:translateY(-10px)}}@keyframes leaf{0%,100%{transform:rotate(0deg)}50%{transform:rotate(8deg)}}</style><rect width="520" height="390" rx="34" fill="#EEF8F5"/><path class="leaf" d="M74 102c31-28 68-34 105-16-27 32-61 43-105 16z" fill="#8AD7CA"/><path class="leaf" d="M396 257c27-22 58-25 91-8-25 26-53 34-91 8z" fill="#E9C46A"/><g class="float"><rect x="197" y="190" width="132" height="92" rx="21" fill="#fff" stroke="#BFE7DF" stroke-width="5"/><path d="M225 222h72M225 245h47" stroke="#E9C46A" stroke-width="7" stroke-linecap="round"/></g><ellipse cx="260" cy="337" rx="117" ry="16" fill="#172033" opacity=".1"/><g class="float"><circle cx="199" cy="137" r="34" fill="#D89584"/><path d="M168 127c9-36 61-42 75-7-23 3-41-5-57-20-5 12-11 20-18 27z" fill="#172033"/><path d="M156 181h85v88h-85z" fill="#2A9D8F"/><path d="M165 269h29v61h-29zM206 269h29v61h-29z" fill="#264653"/></g><g class="float" style="animation-delay:-1.2s"><circle cx="322" cy="143" r="33" fill="#F2B7A6"/><path d="M291 134c5-34 51-49 73-17-20 7-43 3-61-10-3 11-7 20-12 27z" fill="#172033"/><path d="M280 187h84v82h-84z" fill="#E9C46A"/><path d="M290 269h29v61h-29zM331 269h29v61h-29z" fill="#264653"/></g></svg>
