<svg xmlns="http://www.w3.org/2000/svg" viewBox="0 0 520 390" role="img" aria-labelledby="title desc"><title id="title">Teen writing thoughts</title><desc id="desc">A teen writing in a journal with floating thought stars.</desc><style>.float{animation:float 4.8s ease-in-out infinite}.write{animation:write 2.6s ease-in-out infinite}.twinkle{animation:twinkle 2s ease-in-out infinite}@keyframes float{0%,100%{transform:translateY(0)}50%{transform:translateY(-10px)}}@keyframes write{0%,100%{transform:rotate(0deg)}50%{transform:rotate(-6deg)}}@keyframes twinkle{0%,100%{opacity:.35}50%{opacity:1}}</style><rect width="520" height="390" rx="34" fill="#F7F4EA"/><circle class="twinkle" cx="97" cy="76" r="7" fill="#E9C46A"/><circle class="twinkle" cx="425" cy="98" r="8" fill="#2A9D8F"/><path class="float" d="M348 69h72a24 24 0 0 1 0 48h-41l-27 25 6-25h-10a24 24 0 0 1 0-48z" fill="#fff" opacity=".9"/><path d="M374 94h43M374 110h29" stroke="#BFE7DF" stroke-width="5" stroke-linecap="round"/><ellipse cx="260" cy="335" rx="116" ry="17" fill="#172033" opacity=".1"/><g class="float"><rect x="144" y="210" width="214" height="93" rx="18" fill="#fff" stroke="#BFE7DF" stroke-width="5"/><path d="M177 239h142M177 263h116" stroke="#E9C46A" stroke-width="7" stroke-linecap="round"/><circle cx="251" cy="132" r="39" fill="#F2B7A6"/><path d="M211 130c5-36 50-58 83-33 13 10 18 24 16 39-33 0-58-13-76-31-5 12-12 21-23 25z" fill="#172033"/><path d="M181 184c17-28 42-42 74-42s58 15 78 45v45H181z" fill="#8AD7CA"/><path d="M205 232h96v38h-96z" fill="#2A9D8F" opacity=".35"/><circle cx="239" cy="136" r="4" fill="#172033"/><circle cx="270" cy="136" r="4" fill="#172033"/><path d="M241 156c10 8 24 8 34 0" fill="none" stroke="#172033" stroke-width="4" stroke-linecap="round"/><g class="write"><path d="M315 211l67-36" stroke="#E76F51" stroke-width="9" stroke-linecap="round"/><path d="m381 175 15-8-6 16z" fill="#264653"/></g></g></svg>
