<svg xmlns="http://www.w3.org/2000/svg" viewBox="0 0 520 390" role="img" aria-labelledby="title desc"><title id="title">Roadmap milestones</title><desc id="desc">A teen walking along colorful milestones toward a destination flag.</desc><style>.float{animation:float 5s ease-in-out infinite}.flag{animation:flag 1.8s ease-in-out infinite}@keyframes float{0%,100%{transform:translateY(0)}50%{transform:translateY(-10px)}}@keyframes flag{0%,100%{transform:skewX(0deg)}50%{transform:skewX(-7deg)}}</style><rect width="520" height="390" rx="34" fill="#F7F4EA"/><path d="M72 296c84-64 121 23 195-38 52-43 61-102 170-96" fill="none" stroke="#E9C46A" stroke-width="18" stroke-linecap="round"/><path d="M74 296c78-49 115 31 189-31 48-40 59-92 157-89" fill="none" stroke="#fff" stroke-width="8" stroke-linecap="round"/><g class="flag"><path d="M421 99v132" stroke="#264653" stroke-width="8" stroke-linecap="round"/><path d="M425 105h64l-17 24 17 24h-64z" fill="#2A9D8F"/></g><circle cx="101" cy="276" r="18" fill="#2A9D8F"/><circle cx="242" cy="262" r="18" fill="#E76F51"/><circle cx="358" cy="187" r="18" fill="#E9C46A"/><g class="float"><ellipse cx="219" cy="335" rx="68" ry="13" fill="#172033" opacity=".1"/><circle cx="224" cy="132" r="36" fill="#F2B7A6"/><path d="M190 126c8-40 68-48 82-7-23 3-43-5-62-20-5 11-12 20-20 27z" fill="#172033"/><path d="M183 178h87v85h-87z" fill="#8AD7CA"/><path d="M193 263h31v64h-31zM235 263h31v64h-31z" fill="#264653"/><path d="M181 207l-39 22M271 207l37 24" stroke="#F2B7A6" stroke-width="13" stroke-linecap="round"/><circle cx="213" cy="136" r="4" fill="#172033"/><circle cx="239" cy="136" r="4" fill="#172033"/><path d="M214 155c9 7 21 7 30 0" fill="none" stroke="#172033" stroke-width="4" stroke-linecap="round"/></g></svg>
