<svg xmlns="http://www.w3.org/2000/svg" viewBox="0 0 520 390" role="img" aria-labelledby="title desc"><title id="title">Skill building</title><desc id="desc">A teen learning from a laptop and open book with skill icons.</desc><style>.float{animation:float 4.8s ease-in-out infinite}.spark{animation:spark 2.4s ease-in-out infinite}@keyframes float{0%,100%{transform:translateY(0)}50%{transform:translateY(-10px)}}@keyframes spark{0%,100%{opacity:.35;transform:scale(.95)}50%{opacity:1;transform:scale(1.1)}}</style><rect width="520" height="390" rx="34" fill="#F7F4EA"/><circle class="spark" cx="395" cy="87" r="23" fill="#E9C46A"/><path d="M382 87h26M395 74v26" stroke="#fff" stroke-width="7" stroke-linecap="round"/><rect x="318" y="197" width="127" height="79" rx="16" fill="#fff" stroke="#BFE7DF" stroke-width="5"/><path d="M347 228h69M347 250h44" stroke="#2A9D8F" stroke-width="7" stroke-linecap="round"/><ellipse cx="234" cy="337" rx="94" ry="14" fill="#172033" opacity=".1"/><g class="float"><circle cx="232" cy="132" r="37" fill="#D89584"/><path d="M198 124c8-38 63-47 79-10-23 4-45-1-65-17-4 11-8 20-14 27z" fill="#172033"/><path d="M181 184h101v84H181z" fill="#8AD7CA"/><path d="M194 268h32v62h-32zM239 268h32v62h-32z" fill="#264653"/><rect x="148" y="226" width="167" height="67" rx="13" fill="#fff" stroke="#BFE7DF" stroke-width="5"/><path d="M176 249h112M176 270h72" stroke="#E9C46A" stroke-width="7" stroke-linecap="round"/><circle cx="221" cy="136" r="4" fill="#172033"/><circle cx="250" cy="136" r="4" fill="#172033"/><path d="M221 155c10 7 23 7 33 0" fill="none" stroke="#172033" stroke-width="4" stroke-linecap="round"/></g></svg>
