<svg xmlns="http://www.w3.org/2000/svg" viewBox="0 0 520 390" role="img" aria-labelledby="title desc"><title id="title">Recognizing potential</title><desc id="desc">A teen looking at bright strength badges and a mirror.</desc><style>.float{animation:float 5s ease-in-out infinite}.badge{animation:pulse 2.4s ease-in-out infinite}@keyframes float{0%,100%{transform:translateY(0)}50%{transform:translateY(-10px)}}@keyframes pulse{0%,100%{transform:scale(1)}50%{transform:scale(1.08)}}</style><rect width="520" height="390" rx="34" fill="#F7F4EA"/><rect x="335" y="82" width="95" height="144" rx="42" fill="#fff" stroke="#BFE7DF" stroke-width="7"/><circle cx="382" cy="133" r="26" fill="#F2B7A6"/><path d="M356 129c8-30 47-34 58-5-18 2-34-4-48-17-3 10-6 17-10 22z" fill="#172033"/><path d="M357 178c16-23 48-23 64 0v26h-64z" fill="#8AD7CA"/><g class="badge"><circle cx="102" cy="95" r="26" fill="#E9C46A"/><path d="m102 80 5 10 11 2-8 8 2 12-10-6-10 6 2-12-8-8 11-2z" fill="#fff"/></g><g class="badge" style="animation-delay:-.8s"><circle cx="164" cy="136" r="24" fill="#2A9D8F"/><path d="M153 136h22M164 125v22" stroke="#fff" stroke-width="6" stroke-linecap="round"/></g><ellipse cx="233" cy="336" rx="87" ry="15" fill="#172033" opacity=".1"/><g class="float"><circle cx="231" cy="142" r="38" fill="#D89584"/><path d="M195 135c7-40 65-49 82-10-23 5-47-1-68-18-4 11-8 20-14 28z" fill="#172033"/><path d="M182 194h101v87H182z" fill="#8AD7CA"/><path d="M194 281h34v53h-34zM239 281h34v53h-34z" fill="#264653"/><path d="M185 216l-50-41M280 214l42-43" stroke="#D89584" stroke-width="13" stroke-linecap="round"/><circle cx="219" cy="146" r="4" fill="#172033"/><circle cx="249" cy="146" r="4" fill="#172033"/><path d="M220 165c10 7 23 7 33 0" fill="none" stroke="#172033" stroke-width="4" stroke-linecap="round"/></g></svg>
