<svg xmlns="http://www.w3.org/2000/svg" viewBox="0 0 520 390" role="img" aria-labelledby="title desc"><title id="title">Connected with mentor</title><desc id="desc">A teen talking with a friendly mentor and community chat bubbles.</desc><style>.float{animation:float 5s ease-in-out infinite}.bubble{animation:float 4s ease-in-out infinite alternate}@keyframes float{0%,100%{transform:translateY(0)}50%{transform:translateY(-10px)}}</style><rect width="520" height="390" rx="34" fill="#EEF8F5"/><path class="bubble" d="M87 80h104a23 23 0 0 1 0 46h-47l-28 25 6-25H87a23 23 0 0 1 0-46z" fill="#fff"/><path class="bubble" style="animation-delay:-1s" d="M340 96h80a22 22 0 0 1 0 44h-21l-25 22 5-22h-39a22 22 0 0 1 0-44z" fill="#fff"/><path d="M111 105h54M361 120h39" stroke="#BFE7DF" stroke-width="7" stroke-linecap="round"/><ellipse cx="260" cy="337" rx="118" ry="16" fill="#172033" opacity=".1"/><g class="float"><circle cx="196" cy="142" r="36" fill="#F2B7A6"/><path d="M162 135c6-37 60-48 80-11-23 5-45-1-64-16-5 11-10 20-16 27z" fill="#172033"/><path d="M151 193h91v83h-91z" fill="#8AD7CA"/><path d="M162 276h31v55h-31zM203 276h31v55h-31z" fill="#264653"/></g><g class="float" style="animation-delay:-1.3s"><circle cx="320" cy="133" r="38" fill="#D89584"/><path d="M284 126c7-42 70-48 85-8-24 3-48-3-69-19-4 11-9 20-16 27z" fill="#172033"/><path d="M270 186h102v90H270z" fill="#E9C46A"/><path d="M283 276h34v55h-34zM328 276h34v55h-34z" fill="#264653"/><path d="M270 218c-39 31-55 35-87 8" fill="none" stroke="#D89584" stroke-width="13" stroke-linecap="round"/></g></svg>
