<svg xmlns="http://www.w3.org/2000/svg" viewBox="0 0 520 390" role="img" aria-labelledby="title desc"><title id="title">Mental readiness</title><desc id="desc">A calm teen breathing near soft clouds and affirmation cards.</desc><style>.float{animation:float 5.5s ease-in-out infinite}.breath{animation:breath 3.2s ease-in-out infinite}@keyframes float{0%,100%{transform:translateY(0)}50%{transform:translateY(-10px)}}@keyframes breath{0%,100%{transform:scale(1);opacity:.65}50%{transform:scale(1.08);opacity:1}}</style><rect width="520" height="390" rx="34" fill="#EEF8F5"/><path class="breath" d="M68 113h90a28 28 0 0 0-51-15 23 23 0 0 0-39 15z" fill="#fff"/><path class="breath" d="M351 93h83a25 25 0 0 0-46-13 21 21 0 0 0-37 13z" fill="#fff"/><rect x="342" y="210" width="104" height="68" rx="17" fill="#fff"/><path d="M366 237h56M366 257h39" stroke="#E9C46A" stroke-width="7" stroke-linecap="round"/><ellipse cx="245" cy="337" rx="98" ry="15" fill="#172033" opacity=".1"/><g class="float"><circle cx="244" cy="126" r="39" fill="#F2B7A6"/><path d="M207 119c8-41 66-51 82-10-23 5-47-1-67-18-5 11-10 20-15 28z" fill="#172033"/><path d="M183 189c12-31 37-48 62-48s50 17 62 48v78H183z" fill="#2A9D8F"/><path d="M196 267h34v64h-34zM258 267h34v64h-34z" fill="#264653"/><circle cx="232" cy="130" r="4" fill="#172033"/><circle cx="262" cy="130" r="4" fill="#172033"/><path d="M230 151c11 8 25 8 36 0" fill="none" stroke="#172033" stroke-width="4" stroke-linecap="round"/><path d="M186 219h118" stroke="#fff" stroke-width="11" opacity=".55"/></g><path class="breath" d="M175 198c-30-6-49-20-58-42M314 198c31-6 50-20 59-42" fill="none" stroke="#8AD7CA" stroke-width="8" stroke-linecap="round"/></svg>
