<svg xmlns="http://www.w3.org/2000/svg" viewBox="0 0 520 390" role="img" aria-labelledby="title desc"><title id="title">Teen journey illustration</title><desc id="desc">A friendly teenager holding a compass beside a winding path and stars.</desc><style>.float{animation:float 4s ease-in-out infinite}.slow{animation:float 6s ease-in-out infinite}.spin{transform-origin:385px 104px;animation:spin 14s linear infinite}.twinkle{animation:twinkle 2.6s ease-in-out infinite}@keyframes float{0%,100%{transform:translateY(0)}50%{transform:translateY(-10px)}}@keyframes spin{to{transform:rotate(360deg)}}@keyframes twinkle{0%,100%{opacity:.35;transform:scale(.9)}50%{opacity:1;transform:scale(1.08)}}</style><rect width="520" height="390" rx="34" fill="#F7F4EA"/><path d="M58 316c70-52 132-12 198-53 79-49 103-132 207-119" fill="none" stroke="#E9C46A" stroke-width="18" stroke-linecap="round"/><path d="M74 316c62-39 125-6 188-45 70-43 105-118 188-110" fill="none" stroke="#fff" stroke-width="8" stroke-linecap="round"/><circle class="twinkle" cx="77" cy="70" r="7" fill="#E9C46A"/><circle class="twinkle" cx="448" cy="63" r="6" fill="#2A9D8F"/><path class="slow" d="M120 125h64a24 24 0 0 0-44-13 20 20 0 0 0-36 13z" fill="#fff" opacity=".82"/><g class="spin"><circle cx="385" cy="104" r="44" fill="#fff" stroke="#2A9D8F" stroke-width="9"/><path d="M385 72v64M353 104h64" stroke="#2A9D8F" stroke-width="5" stroke-linecap="round"/><path d="m398 91-18 35-8-27z" fill="#E76F51"/></g><g class="float"><ellipse cx="245" cy="337" rx="79" ry="15" fill="#172033" opacity=".1"/><path d="M200 188c5-31 27-53 59-53s55 24 55 55v82H200z" fill="#8AD7CA"/><circle cx="257" cy="111" r="39" fill="#F2B7A6"/><path d="M218 100c11-38 73-44 88-2-24 1-48-7-69-22-5 11-11 19-19 24z" fill="#172033"/><path d="M211 272h36v63h-36zM268 272h36v63h-36z" fill="#264653"/><path d="M222 335h43M279 335h43" stroke="#172033" stroke-width="10" stroke-linecap="round"/><path d="M214 206h89" stroke="#fff" stroke-width="9" stroke-linecap="round" opacity=".7"/><circle cx="243" cy="115" r="4" fill="#172033"/><circle cx="274" cy="115" r="4" fill="#172033"/><path d="M246 137c10 8 24 8 34 0" fill="none" stroke="#172033" stroke-width="4" stroke-linecap="round"/></g><path d="M87 241h44l-22-37zM425 257h44l-22-37z" fill="#2A9D8F" opacity=".8"/></svg>
